<?xml version="1.0"?>
<svg xmlns:rdf="http://www.w3.org/1999/02/22-rdf-syntax-ns#" xmlns="http://www.w3.org/2000/svg" xmlns:cc="http://web.resource.org/cc/" xmlns:xlink="http://www.w3.org/1999/xlink" xmlns:dc="http://purl.org/dc/elements/1.1/" xmlns:svg="http://www.w3.org/2000/svg" id="svg7235" height="340pt" width="343pt" version="1.0">
  <defs id="defs7237">
    <linearGradient id="linearGradient1947" y2="148.12" gradientUnits="userSpaceOnUse" x2="157.5" gradientTransform="matrix(.51803 0 0 .52010 182.38 -110.97)" y1="148.12" x1="135">
      <stop id="stop21449" stop-color="#ff0" offset="0"/>
      <stop id="stop21451" stop-color="#ff0" stop-opacity="0" offset="1"/>
    </linearGradient>
    <linearGradient id="linearGradient1944" y2="313.41" gradientUnits="userSpaceOnUse" x2="168.84" y1="313.41" x1="24.569">
      <stop id="stop36866" stop-color="gray" offset="0"/>
      <stop id="stop36868" stop-color="gray" stop-opacity="0" offset="1"/>
    </linearGradient>
  </defs>
  <g id="g1917" transform="matrix(.86127 0 0 .86127 49.814 3.5501)">
    <rect id="rect25331" stroke-linejoin="round" fill-rule="evenodd" rx="304.45" ry="11.073" transform="matrix(.80555 -.59253 .38002 .92498 0 0)" height="360.68" width="273.19" stroke="#000" y="132.28" x="-59.068" stroke-width="9.4283" fill="#ececec"/>
    <rect id="rect25342" transform="matrix(.77754 -.62884 .35002 .93674 0 0)" fill-rule="evenodd" rx="233.86" ry="8.9139" height="290.34" width="209.85" y="195.46" x="-7.5031" fill="#ccc"/>
    <path id="rect34204" d="m24.569 204.71l49.429-54.77 94.842 311.74-28.97 15.21-115.3-272.18z" fill="url(#linearGradient1944)" fill-rule="evenodd"/>
    <rect id="rect9959" stroke-linejoin="round" fill-rule="evenodd" rx="297.55" ry="9.7275" transform="matrix(.80607 -.59182 .50503 .86310 0 0)" height="316.84" width="267" stroke="#000" y="129.74" x="-74.802" stroke-width="8.736"/>
    <path id="rect3709" opacity=".72082" d="m12.633 161.22l54.326-43.01 52.421-39.289 49.07-34.636 53.8-34.585 33.13 54.387-175.28 212.05-67.467-114.92z" fill="#999" fill-rule="evenodd"/>
    <path id="path13531" stroke-linejoin="round" d="m161.27 147.8c1.86-0.27 0.95-0.11 2.44 1.87 0.34 2.69 2.02 4.04 2.37 9.78 0.54 2.73 1.13 5.18 2.25 7.71 0.85 2.81 1.48 5.79 2.17 8.67 0.53 1.25 0.85 2.59 1.19 3.92l-2.06 14.42c0.06-2.92-0.04-3.87-0.66-6.49-1.93-3.74-2.17-5.02-2.3-7.84-0.98-5.91-2.47-1.18-1.95-10.39-0.82-2.79-1.17-4.67-2.4-6.78-0.45-0.92-1.3-2.79-1.05-1.78v-13.09z" fill-rule="evenodd" stroke="#000" stroke-width=".81458" fill="#fff"/>
    <path id="path13533" stroke-linejoin="round" d="m173.71 135.38c-0.26-2.18 0.53 2 0.85 4.14 0.11 3.73 3.21 8.14 4.26 10.63 0.94 4.04 1.78 7.36 2.7 12.98 1.36 1.07 0.96 2.68 1.21 4.19l-2.47 16.26c-0.09-2.81-0.07-5.62-0.42-8.41-1.98-2.52-2.89-5.85-3.04-9-1.25-3.69-2.88-6.5-4.61-10.21-0.31-1.56-2.61-3.94-1.12-4.63l2.64-15.95z" fill-rule="evenodd" stroke="#000" stroke-width="1.0279" fill="#fff"/>
    <path id="path13535" stroke-linejoin="round" d="m193.01 131.04c-1.19 32.56 0.39 6.39-3.96 17.28-2.4 0.03-2.49 1.58-5.32 1.73-1.3 5.01-1.66 3.78-1.87 7.28-1.27-17.81 1.38-8.42 5.58-4.73 0.55 0.65 1.11 1.3 1.66 1.95l-0.86 11.93c-0.67 0.57-1.33 1.14-1.99 1.7-3.57-9.11-8.89-7.62-6.27-23.47 0.79-3.01 1.94-4.57 2.86-7.31 1.9-1.03 3.79-1.91 5.38-4.65 5.23 0.45 2.84-2.13 2.34 13.74l2.45-15.45z" fill-rule="evenodd" stroke="#000" stroke-width=".81458" fill="#fff"/>
    <path id="path13537" stroke-linejoin="round" d="m193.57 116.55c0.25 3.26 2.78 5.61 2.94 5.98 0.86 5.08 3.6 9.29 4.72 14.43 1.62 4.73 4.01 8.82 5.1 13.73l-1.12 9.66c-3.53-3.82-3.9-7.7-5.4-12.11-1.04-3.82-2.73-7.84-5.02-10.61-0.54-6.24-0.33-3.2-2.42-5.82l1.2-15.26z" fill-rule="evenodd" stroke="#000" stroke-width=".81458" fill="#fff"/>
    <path id="path16133" opacity=".061514" d="m144.87 80.923l-66.977 97.747 66.067-51.59-47.965 68.79" stroke="#fff" stroke-width="18.102" fill="none"/>
    <path id="path9937" d="m177.86 225.45l-32.75 24.06 46.73 6.14-8.65-9.47-4.32-10.34-1.01-10.39z" fill="#1a1a1a" fill-rule="evenodd"/>
    <rect id="rect9933" fill-rule="evenodd" rx="144.37" ry="4.2219" transform="matrix(.33722 .94143 -.97012 .24262 0 0)" width="33.513" y="-253.66" x="265.42" height="164.05" fill="#1a1a1a"/>
    <path id="path13529" stroke-linejoin="round" d="m96.103 205.44c2.037-0.97 3.004-1.33 3.889 2.1 2.488-2.91 2.648-1.52 5.048 0.42 2.88 0.25 3.08 0.53 4.42 2.38 1.64 2.48 4.01 2.45 5.81 3.36 1.58 4.88 3.76 5.68 4.85 7.82 1.09-1.18 2.87 4.65 4.52 6.29 0.78 2.58 2.28 3.38 4 4.98 0.02-0.37 0-0.74-0.01-1.1 0.11-15.6-0.99 14.54-0.17 3.68 0.45-7.15-0.07-14.49 0.66-21.1-0.11-2.34 0.44-4.66 0.68-6.99 0.42-3.16 0.35-6.33 0.3-9.51 1-2.17 0.77-3.28 1.32-6.49-0.31-4.35 1.58-2.38 3.26-2.69 0.8 1.01 1.91 1.84 2.42 3.03 1 1.64 2.03 5.28 2.22 6.3 0.68 1.31 1.55 2.55 1.97 3.96-0.33 2.85 0.72 5.16 1.3 7.75 0.19 0.5-0.4 1-0.59 1.5-0.14-3.01 0.19-5.77 0.81-8.53 1.19-1.7 2-6.24 2.82-9.09 1.53-1.38 2.05-5.9 3.29-9.55 0.81-3.12 2.25-6.13 3.21-8.66 0.16-5.34 1.44-2.33 1.31-8.76 0.07-0.17 0.15-0.35 0.22-0.53l1.88 12.73c-0.05 0.47-0.11 0.95-0.16 1.42-0.47 2.35-1.27 3.88-1.58 8.11-0.72 1.7-3.39 6.57-2.95 10.38-0.99 2.02-3.4 6.21-3.27 9.53-0.94 1.78-2.52 5.38-2.85 8.42-0.48 2.58-0.87 6.02-0.68 8.99-1.17-0.93-2.54 0.18-3.45-1.5 0.28-4.94-0.35-3.24-1.34-6.59-0.22-1.97-1.23-9.93-1.77-5.3-0.57-4.16-1.32-4.66-1.66-7.39-0.76-1.15-1.27-0.78-2.26-3.54 0 0.45-0.46 1.65-0.61 1.22 0.01 3.61-0.24 5.94-0.66 9.45-0.04 2.53-0.23 5.12-0.74 7.53-0.06 2.42-0.27 4.67-0.55 7.44 0.38 10.02-2.31 1.17-0.42-5.01 0 7.44-0.06 14.99-0.05 22.38-1.62 2.09-1.01 3.6-3.04 0.7-1.62-1.5-2.2-3.3-4.34-2.07-1.03-2.93-2.13-6.72-4.27-8.51-1-1.71-2.7-3.82-4.92-5.19-2.33-4.09-3.81-1.89-5.39-6.41-3.28-1.77-1.29 1.11-4.14-2.13-1.99-1.77-3.25-0.06-4.777-2.07-1.73-1.55-0.727-0.87-3.56-0.58v-12.58z" fill-rule="evenodd" stroke="#000" stroke-width=".81458" fill="#fff"/>
    <g id="g40442" fill-rule="evenodd" transform="matrix(1.3665 .48196 -.48196 1.3665 67.119 -149.04)">
      <rect id="rect7244" transform="matrix(.73782 .675 -.65055 .75946 0 0)" rx="145.05" ry="4.5509" height="176.83" width="33.672" y="-122.03" x="241.3" fill="#ff2a2a"/>
      <rect id="rect7246" transform="matrix(.73782 .675 -.65055 .75946 0 0)" rx="145.05" ry="0" height="176.18" width="11.656" y="-122.03" x="252.31" fill="url(#linearGradient1947)"/>
      <path id="path7252" d="m144.02 201.6l-13.69 43.84 39.86-21.66-11.56-4.42-8.6-7.86-6.01-9.9z" fill="#999"/>
      <path id="path8139" fill="#b3b3b3" d="m149.62 211.97l9.96 8.27-27.4 24.25 17.44-32.52z"/>
      <path id="path9919" stroke="#000" stroke-width=".51892px" d="m134.55 232.56l8.49 6-11.44 5.39 2.95-11.39z"/>
    </g>
  </g>
  <metadata>
    <rdf:RDF>
      <cc:Work>
        <dc:format>image/svg+xml</dc:format>
        <dc:type rdf:resource="http://purl.org/dc/dcmitype/StillImage"/>
        <cc:license rdf:resource="http://creativecommons.org/licenses/publicdomain/"/>
        <dc:publisher>
          <cc:Agent rdf:about="http://openclipart.org/">
            <dc:title>Openclipart</dc:title>
          </cc:Agent>
        </dc:publisher>
        <dc:title>pencil and note pad</dc:title>
        <dc:date>2006-11-30T08:31:45</dc:date>
        <dc:description>Pencil + notebook</dc:description>
        <dc:source>http://openclipart.org/detail/1697/pencil-and-note-pad-by-ausis</dc:source>
        <dc:creator>
          <cc:Agent>
            <dc:title>Ausis</dc:title>
          </cc:Agent>
        </dc:creator>
        <dc:subject>
          <rdf:Bag>
            <rdf:li>clip art</rdf:li>
            <rdf:li>clipart</rdf:li>
            <rdf:li>icon</rdf:li>
            <rdf:li>image</rdf:li>
            <rdf:li>media</rdf:li>
            <rdf:li>note</rdf:li>
            <rdf:li>notepad</rdf:li>
            <rdf:li>pad</rdf:li>
            <rdf:li>pencil</rdf:li>
            <rdf:li>png</rdf:li>
            <rdf:li>public domain</rdf:li>
            <rdf:li>svg</rdf:li>
            <rdf:li>write</rdf:li>
            <rdf:li>writing</rdf:li>
          </rdf:Bag>
        </dc:subject>
      </cc:Work>
      <cc:License rdf:about="http://creativecommons.org/licenses/publicdomain/">
        <cc:permits rdf:resource="http://creativecommons.org/ns#Reproduction"/>
        <cc:permits rdf:resource="http://creativecommons.org/ns#Distribution"/>
        <cc:permits rdf:resource="http://creativecommons.org/ns#DerivativeWorks"/>
      </cc:License>
    </rdf:RDF>
  </metadata>
</svg>
